<mxfile host="app.diagrams.net" modified="2020-12-11T04:00:53.339Z" agent="5.0 (Macintosh; Intel Mac OS X 10_14_6) AppleWebKit/537.36 (KHTML, like Gecko) Chrome/87.0.4280.67 Safari/537.36" etag="H4h67uKsa3NnevY7TMcr" version="14.0.0" type="github">
  <diagram id="SJgFfLJ4Xzr0zGgZQ5Ph" name="ページ1">
    <mxGraphModel dx="1773" dy="4096" grid="1" gridSize="10" guides="1" tooltips="1" connect="1" arrows="1" fold="1" page="1" pageScale="1" pageWidth="827" pageHeight="1169" math="0" shadow="0">
      <root>
        <mxCell id="0" />
        <mxCell id="1" parent="0" />
        <mxCell id="ZuCImtXs0Fwf6ti-tjpx-20" value="会員" style="shape=table;startSize=30;container=1;collapsible=1;childLayout=tableLayout;fixedRows=1;rowLines=0;fontStyle=1;align=center;resizeLast=1;labelBackgroundColor=none;strokeColor=#000000;strokeWidth=1;fillColor=#ffffff;" vertex="1" parent="1">
          <mxGeometry x="-787" y="-2830" width="180" height="330" as="geometry" />
        </mxCell>
        <mxCell id="ZuCImtXs0Fwf6ti-tjpx-21" value="" style="shape=partialRectangle;collapsible=0;dropTarget=0;pointerEvents=0;fillColor=none;top=0;left=0;bottom=1;right=0;points=[[0,0.5],[1,0.5]];portConstraint=eastwest;" vertex="1" parent="ZuCImtXs0Fwf6ti-tjpx-20">
          <mxGeometry y="30" width="180" height="30" as="geometry" />
        </mxCell>
        <mxCell id="ZuCImtXs0Fwf6ti-tjpx-22" value="PK" style="shape=partialRectangle;connectable=0;fillColor=none;top=0;left=0;bottom=0;right=0;fontStyle=1;overflow=hidden;" vertex="1" parent="ZuCImtXs0Fwf6ti-tjpx-21">
          <mxGeometry width="30" height="30" as="geometry" />
        </mxCell>
        <mxCell id="ZuCImtXs0Fwf6ti-tjpx-23" value="ID" style="shape=partialRectangle;connectable=0;fillColor=none;top=0;left=0;bottom=0;right=0;align=left;spacingLeft=6;fontStyle=5;overflow=hidden;" vertex="1" parent="ZuCImtXs0Fwf6ti-tjpx-21">
          <mxGeometry x="30" width="150" height="30" as="geometry" />
        </mxCell>
        <mxCell id="ZuCImtXs0Fwf6ti-tjpx-24" value="" style="shape=partialRectangle;collapsible=0;dropTarget=0;pointerEvents=0;fillColor=none;top=0;left=0;bottom=0;right=0;points=[[0,0.5],[1,0.5]];portConstraint=eastwest;" vertex="1" parent="ZuCImtXs0Fwf6ti-tjpx-20">
          <mxGeometry y="60" width="180" height="30" as="geometry" />
        </mxCell>
        <mxCell id="ZuCImtXs0Fwf6ti-tjpx-25" value="" style="shape=partialRectangle;connectable=0;fillColor=none;top=0;left=0;bottom=0;right=0;editable=1;overflow=hidden;" vertex="1" parent="ZuCImtXs0Fwf6ti-tjpx-24">
          <mxGeometry width="30" height="30" as="geometry" />
        </mxCell>
        <mxCell id="ZuCImtXs0Fwf6ti-tjpx-26" value="・名前（漢字)" style="shape=partialRectangle;connectable=0;fillColor=none;top=0;left=0;bottom=0;right=0;align=left;spacingLeft=6;overflow=hidden;" vertex="1" parent="ZuCImtXs0Fwf6ti-tjpx-24">
          <mxGeometry x="30" width="150" height="30" as="geometry" />
        </mxCell>
        <mxCell id="ZuCImtXs0Fwf6ti-tjpx-27" value="" style="shape=partialRectangle;collapsible=0;dropTarget=0;pointerEvents=0;fillColor=none;top=0;left=0;bottom=0;right=0;points=[[0,0.5],[1,0.5]];portConstraint=eastwest;" vertex="1" parent="ZuCImtXs0Fwf6ti-tjpx-20">
          <mxGeometry y="90" width="180" height="30" as="geometry" />
        </mxCell>
        <mxCell id="ZuCImtXs0Fwf6ti-tjpx-28" value="" style="shape=partialRectangle;connectable=0;fillColor=none;top=0;left=0;bottom=0;right=0;editable=1;overflow=hidden;" vertex="1" parent="ZuCImtXs0Fwf6ti-tjpx-27">
          <mxGeometry width="30" height="30" as="geometry" />
        </mxCell>
        <mxCell id="ZuCImtXs0Fwf6ti-tjpx-29" value="・名前(カナ)" style="shape=partialRectangle;connectable=0;fillColor=none;top=0;left=0;bottom=0;right=0;align=left;spacingLeft=6;overflow=hidden;" vertex="1" parent="ZuCImtXs0Fwf6ti-tjpx-27">
          <mxGeometry x="30" width="150" height="30" as="geometry" />
        </mxCell>
        <mxCell id="ZuCImtXs0Fwf6ti-tjpx-35" value="" style="shape=partialRectangle;collapsible=0;dropTarget=0;pointerEvents=0;fillColor=none;top=0;left=0;bottom=0;right=0;points=[[0,0.5],[1,0.5]];portConstraint=eastwest;" vertex="1" parent="ZuCImtXs0Fwf6ti-tjpx-20">
          <mxGeometry y="120" width="180" height="30" as="geometry" />
        </mxCell>
        <mxCell id="ZuCImtXs0Fwf6ti-tjpx-36" value="" style="shape=partialRectangle;connectable=0;fillColor=none;top=0;left=0;bottom=0;right=0;editable=1;overflow=hidden;" vertex="1" parent="ZuCImtXs0Fwf6ti-tjpx-35">
          <mxGeometry width="30" height="30" as="geometry" />
        </mxCell>
        <mxCell id="ZuCImtXs0Fwf6ti-tjpx-37" value="・メールアドレス" style="shape=partialRectangle;connectable=0;fillColor=none;top=0;left=0;bottom=0;right=0;align=left;spacingLeft=6;overflow=hidden;" vertex="1" parent="ZuCImtXs0Fwf6ti-tjpx-35">
          <mxGeometry x="30" width="150" height="30" as="geometry" />
        </mxCell>
        <mxCell id="ZuCImtXs0Fwf6ti-tjpx-94" value="" style="shape=partialRectangle;collapsible=0;dropTarget=0;pointerEvents=0;fillColor=none;top=0;left=0;bottom=0;right=0;points=[[0,0.5],[1,0.5]];portConstraint=eastwest;labelBackgroundColor=none;strokeColor=#000000;strokeWidth=1;fontSize=14;" vertex="1" parent="ZuCImtXs0Fwf6ti-tjpx-20">
          <mxGeometry y="150" width="180" height="30" as="geometry" />
        </mxCell>
        <mxCell id="ZuCImtXs0Fwf6ti-tjpx-95" value="" style="shape=partialRectangle;connectable=0;fillColor=none;top=0;left=0;bottom=0;right=0;editable=1;overflow=hidden;" vertex="1" parent="ZuCImtXs0Fwf6ti-tjpx-94">
          <mxGeometry width="30" height="30" as="geometry" />
        </mxCell>
        <mxCell id="ZuCImtXs0Fwf6ti-tjpx-96" value="・パスワード" style="shape=partialRectangle;connectable=0;fillColor=none;top=0;left=0;bottom=0;right=0;align=left;spacingLeft=6;overflow=hidden;" vertex="1" parent="ZuCImtXs0Fwf6ti-tjpx-94">
          <mxGeometry x="30" width="150" height="30" as="geometry" />
        </mxCell>
        <mxCell id="ZuCImtXs0Fwf6ti-tjpx-102" value="" style="shape=partialRectangle;collapsible=0;dropTarget=0;pointerEvents=0;fillColor=none;top=0;left=0;bottom=0;right=0;points=[[0,0.5],[1,0.5]];portConstraint=eastwest;" vertex="1" parent="ZuCImtXs0Fwf6ti-tjpx-20">
          <mxGeometry y="180" width="180" height="30" as="geometry" />
        </mxCell>
        <mxCell id="ZuCImtXs0Fwf6ti-tjpx-103" value="" style="shape=partialRectangle;connectable=0;fillColor=none;top=0;left=0;bottom=0;right=0;editable=1;overflow=hidden;" vertex="1" parent="ZuCImtXs0Fwf6ti-tjpx-102">
          <mxGeometry width="30" height="30" as="geometry" />
        </mxCell>
        <mxCell id="ZuCImtXs0Fwf6ti-tjpx-104" value="・郵便番号" style="shape=partialRectangle;connectable=0;fillColor=none;top=0;left=0;bottom=0;right=0;align=left;spacingLeft=6;overflow=hidden;" vertex="1" parent="ZuCImtXs0Fwf6ti-tjpx-102">
          <mxGeometry x="30" width="150" height="30" as="geometry" />
        </mxCell>
        <mxCell id="ZuCImtXs0Fwf6ti-tjpx-223" value="" style="shape=partialRectangle;collapsible=0;dropTarget=0;pointerEvents=0;fillColor=none;top=0;left=0;bottom=0;right=0;points=[[0,0.5],[1,0.5]];portConstraint=eastwest;labelBackgroundColor=none;strokeColor=#000000;strokeWidth=1;fontSize=14;" vertex="1" parent="ZuCImtXs0Fwf6ti-tjpx-20">
          <mxGeometry y="210" width="180" height="30" as="geometry" />
        </mxCell>
        <mxCell id="ZuCImtXs0Fwf6ti-tjpx-224" value="" style="shape=partialRectangle;connectable=0;fillColor=none;top=0;left=0;bottom=0;right=0;editable=1;overflow=hidden;" vertex="1" parent="ZuCImtXs0Fwf6ti-tjpx-223">
          <mxGeometry width="30" height="30" as="geometry" />
        </mxCell>
        <mxCell id="ZuCImtXs0Fwf6ti-tjpx-225" value="・住所" style="shape=partialRectangle;connectable=0;fillColor=none;top=0;left=0;bottom=0;right=0;align=left;spacingLeft=6;overflow=hidden;" vertex="1" parent="ZuCImtXs0Fwf6ti-tjpx-223">
          <mxGeometry x="30" width="150" height="30" as="geometry" />
        </mxCell>
        <mxCell id="ZuCImtXs0Fwf6ti-tjpx-311" value="" style="shape=partialRectangle;collapsible=0;dropTarget=0;pointerEvents=0;fillColor=none;top=0;left=0;bottom=0;right=0;points=[[0,0.5],[1,0.5]];portConstraint=eastwest;labelBackgroundColor=none;strokeColor=#000000;strokeWidth=1;fontSize=14;" vertex="1" parent="ZuCImtXs0Fwf6ti-tjpx-20">
          <mxGeometry y="240" width="180" height="30" as="geometry" />
        </mxCell>
        <mxCell id="ZuCImtXs0Fwf6ti-tjpx-312" value="" style="shape=partialRectangle;connectable=0;fillColor=none;top=0;left=0;bottom=0;right=0;editable=1;overflow=hidden;" vertex="1" parent="ZuCImtXs0Fwf6ti-tjpx-311">
          <mxGeometry width="30" height="30" as="geometry" />
        </mxCell>
        <mxCell id="ZuCImtXs0Fwf6ti-tjpx-313" value="・電話番号" style="shape=partialRectangle;connectable=0;fillColor=none;top=0;left=0;bottom=0;right=0;align=left;spacingLeft=6;overflow=hidden;" vertex="1" parent="ZuCImtXs0Fwf6ti-tjpx-311">
          <mxGeometry x="30" width="150" height="30" as="geometry" />
        </mxCell>
        <mxCell id="ZuCImtXs0Fwf6ti-tjpx-42" value="" style="edgeStyle=entityRelationEdgeStyle;fontSize=12;html=1;endArrow=ERoneToMany;entryX=0;entryY=0.5;entryDx=0;entryDy=0;exitX=1.039;exitY=0.333;exitDx=0;exitDy=0;exitPerimeter=0;" edge="1" parent="1" source="ZuCImtXs0Fwf6ti-tjpx-21" target="ZuCImtXs0Fwf6ti-tjpx-44">
          <mxGeometry width="100" height="100" relative="1" as="geometry">
            <mxPoint x="-607" y="-2780" as="sourcePoint" />
            <mxPoint x="-507" y="-2880" as="targetPoint" />
          </mxGeometry>
        </mxCell>
        <mxCell id="ZuCImtXs0Fwf6ti-tjpx-354" style="edgeStyle=orthogonalEdgeStyle;rounded=0;orthogonalLoop=1;jettySize=auto;html=1;exitX=0.25;exitY=0;exitDx=0;exitDy=0;fontSize=14;" edge="1" parent="1" source="ZuCImtXs0Fwf6ti-tjpx-43">
          <mxGeometry relative="1" as="geometry">
            <mxPoint x="-455" y="-2960" as="targetPoint" />
          </mxGeometry>
        </mxCell>
        <mxCell id="ZuCImtXs0Fwf6ti-tjpx-43" value="配送先・編集機能" style="shape=table;startSize=30;container=1;collapsible=1;childLayout=tableLayout;fixedRows=1;rowLines=0;fontStyle=1;align=center;resizeLast=1;labelBackgroundColor=none;strokeColor=#000000;strokeWidth=1;fillColor=#ffffff;" vertex="1" parent="1">
          <mxGeometry x="-500" y="-2960" width="180" height="260" as="geometry" />
        </mxCell>
        <mxCell id="ZuCImtXs0Fwf6ti-tjpx-44" value="" style="shape=partialRectangle;collapsible=0;dropTarget=0;pointerEvents=0;fillColor=none;top=0;left=0;bottom=1;right=0;points=[[0,0.5],[1,0.5]];portConstraint=eastwest;" vertex="1" parent="ZuCImtXs0Fwf6ti-tjpx-43">
          <mxGeometry y="30" width="180" height="30" as="geometry" />
        </mxCell>
        <mxCell id="ZuCImtXs0Fwf6ti-tjpx-45" value="PK" style="shape=partialRectangle;connectable=0;fillColor=none;top=0;left=0;bottom=0;right=0;fontStyle=1;overflow=hidden;" vertex="1" parent="ZuCImtXs0Fwf6ti-tjpx-44">
          <mxGeometry width="30" height="30" as="geometry" />
        </mxCell>
        <mxCell id="ZuCImtXs0Fwf6ti-tjpx-46" value="配送先.ID" style="shape=partialRectangle;connectable=0;fillColor=none;top=0;left=0;bottom=0;right=0;align=left;spacingLeft=6;fontStyle=5;overflow=hidden;" vertex="1" parent="ZuCImtXs0Fwf6ti-tjpx-44">
          <mxGeometry x="30" width="150" height="30" as="geometry" />
        </mxCell>
        <mxCell id="ZuCImtXs0Fwf6ti-tjpx-47" value="" style="shape=partialRectangle;collapsible=0;dropTarget=0;pointerEvents=0;fillColor=none;top=0;left=0;bottom=0;right=0;points=[[0,0.5],[1,0.5]];portConstraint=eastwest;" vertex="1" parent="ZuCImtXs0Fwf6ti-tjpx-43">
          <mxGeometry y="60" width="180" height="30" as="geometry" />
        </mxCell>
        <mxCell id="ZuCImtXs0Fwf6ti-tjpx-48" value="" style="shape=partialRectangle;connectable=0;fillColor=none;top=0;left=0;bottom=0;right=0;editable=1;overflow=hidden;" vertex="1" parent="ZuCImtXs0Fwf6ti-tjpx-47">
          <mxGeometry width="30" height="30" as="geometry" />
        </mxCell>
        <mxCell id="ZuCImtXs0Fwf6ti-tjpx-49" value="・県" style="shape=partialRectangle;connectable=0;fillColor=none;top=0;left=0;bottom=0;right=0;align=left;spacingLeft=6;overflow=hidden;" vertex="1" parent="ZuCImtXs0Fwf6ti-tjpx-47">
          <mxGeometry x="30" width="150" height="30" as="geometry" />
        </mxCell>
        <mxCell id="ZuCImtXs0Fwf6ti-tjpx-50" value="" style="shape=partialRectangle;collapsible=0;dropTarget=0;pointerEvents=0;fillColor=none;top=0;left=0;bottom=0;right=0;points=[[0,0.5],[1,0.5]];portConstraint=eastwest;" vertex="1" parent="ZuCImtXs0Fwf6ti-tjpx-43">
          <mxGeometry y="90" width="180" height="20" as="geometry" />
        </mxCell>
        <mxCell id="ZuCImtXs0Fwf6ti-tjpx-51" value="" style="shape=partialRectangle;connectable=0;fillColor=none;top=0;left=0;bottom=0;right=0;editable=1;overflow=hidden;" vertex="1" parent="ZuCImtXs0Fwf6ti-tjpx-50">
          <mxGeometry width="30" height="20" as="geometry" />
        </mxCell>
        <mxCell id="ZuCImtXs0Fwf6ti-tjpx-52" value="・市町村" style="shape=partialRectangle;connectable=0;fillColor=none;top=0;left=0;bottom=0;right=0;align=left;spacingLeft=6;overflow=hidden;" vertex="1" parent="ZuCImtXs0Fwf6ti-tjpx-50">
          <mxGeometry x="30" width="150" height="20" as="geometry" />
        </mxCell>
        <mxCell id="ZuCImtXs0Fwf6ti-tjpx-53" value="" style="shape=partialRectangle;collapsible=0;dropTarget=0;pointerEvents=0;fillColor=none;top=0;left=0;bottom=0;right=0;points=[[0,0.5],[1,0.5]];portConstraint=eastwest;" vertex="1" parent="ZuCImtXs0Fwf6ti-tjpx-43">
          <mxGeometry y="110" width="180" height="30" as="geometry" />
        </mxCell>
        <mxCell id="ZuCImtXs0Fwf6ti-tjpx-54" value="" style="shape=partialRectangle;connectable=0;fillColor=none;top=0;left=0;bottom=0;right=0;editable=1;overflow=hidden;" vertex="1" parent="ZuCImtXs0Fwf6ti-tjpx-53">
          <mxGeometry width="30" height="30" as="geometry" />
        </mxCell>
        <mxCell id="ZuCImtXs0Fwf6ti-tjpx-55" value="・建物" style="shape=partialRectangle;connectable=0;fillColor=none;top=0;left=0;bottom=0;right=0;align=left;spacingLeft=6;overflow=hidden;" vertex="1" parent="ZuCImtXs0Fwf6ti-tjpx-53">
          <mxGeometry x="30" width="150" height="30" as="geometry" />
        </mxCell>
        <mxCell id="ZuCImtXs0Fwf6ti-tjpx-88" value="" style="shape=partialRectangle;collapsible=0;dropTarget=0;pointerEvents=0;fillColor=none;top=0;left=0;bottom=0;right=0;points=[[0,0.5],[1,0.5]];portConstraint=eastwest;" vertex="1" parent="ZuCImtXs0Fwf6ti-tjpx-43">
          <mxGeometry y="140" width="180" height="30" as="geometry" />
        </mxCell>
        <mxCell id="ZuCImtXs0Fwf6ti-tjpx-89" value="" style="shape=partialRectangle;connectable=0;fillColor=none;top=0;left=0;bottom=0;right=0;editable=1;overflow=hidden;" vertex="1" parent="ZuCImtXs0Fwf6ti-tjpx-88">
          <mxGeometry width="30" height="30" as="geometry" />
        </mxCell>
        <mxCell id="ZuCImtXs0Fwf6ti-tjpx-90" value="・会員.id" style="shape=partialRectangle;connectable=0;fillColor=none;top=0;left=0;bottom=0;right=0;align=left;spacingLeft=6;overflow=hidden;" vertex="1" parent="ZuCImtXs0Fwf6ti-tjpx-88">
          <mxGeometry x="30" width="150" height="30" as="geometry" />
        </mxCell>
        <mxCell id="ZuCImtXs0Fwf6ti-tjpx-314" value="" style="shape=partialRectangle;collapsible=0;dropTarget=0;pointerEvents=0;fillColor=none;top=0;left=0;bottom=0;right=0;points=[[0,0.5],[1,0.5]];portConstraint=eastwest;labelBackgroundColor=none;strokeColor=#000000;strokeWidth=1;fontSize=14;" vertex="1" parent="ZuCImtXs0Fwf6ti-tjpx-43">
          <mxGeometry y="170" width="180" height="30" as="geometry" />
        </mxCell>
        <mxCell id="ZuCImtXs0Fwf6ti-tjpx-315" value="" style="shape=partialRectangle;connectable=0;fillColor=none;top=0;left=0;bottom=0;right=0;editable=1;overflow=hidden;" vertex="1" parent="ZuCImtXs0Fwf6ti-tjpx-314">
          <mxGeometry width="30" height="30" as="geometry" />
        </mxCell>
        <mxCell id="ZuCImtXs0Fwf6ti-tjpx-316" value="・郵便番号" style="shape=partialRectangle;connectable=0;fillColor=none;top=0;left=0;bottom=0;right=0;align=left;spacingLeft=6;overflow=hidden;" vertex="1" parent="ZuCImtXs0Fwf6ti-tjpx-314">
          <mxGeometry x="30" width="150" height="30" as="geometry" />
        </mxCell>
        <mxCell id="ZuCImtXs0Fwf6ti-tjpx-318" value="" style="shape=partialRectangle;collapsible=0;dropTarget=0;pointerEvents=0;fillColor=none;top=0;left=0;bottom=0;right=0;points=[[0,0.5],[1,0.5]];portConstraint=eastwest;labelBackgroundColor=none;strokeColor=#000000;strokeWidth=1;fontSize=14;" vertex="1" parent="ZuCImtXs0Fwf6ti-tjpx-43">
          <mxGeometry y="200" width="180" height="30" as="geometry" />
        </mxCell>
        <mxCell id="ZuCImtXs0Fwf6ti-tjpx-319" value="" style="shape=partialRectangle;connectable=0;fillColor=none;top=0;left=0;bottom=0;right=0;editable=1;overflow=hidden;" vertex="1" parent="ZuCImtXs0Fwf6ti-tjpx-318">
          <mxGeometry width="30" height="30" as="geometry" />
        </mxCell>
        <mxCell id="ZuCImtXs0Fwf6ti-tjpx-320" value="・配送先名" style="shape=partialRectangle;connectable=0;fillColor=none;top=0;left=0;bottom=0;right=0;align=left;spacingLeft=6;overflow=hidden;" vertex="1" parent="ZuCImtXs0Fwf6ti-tjpx-318">
          <mxGeometry x="30" width="150" height="30" as="geometry" />
        </mxCell>
        <mxCell id="ZuCImtXs0Fwf6ti-tjpx-58" value="カート" style="shape=table;startSize=30;container=1;collapsible=1;childLayout=tableLayout;fixedRows=1;rowLines=0;fontStyle=1;align=center;resizeLast=1;labelBackgroundColor=none;strokeColor=#000000;strokeWidth=1;fillColor=#ffffff;" vertex="1" parent="1">
          <mxGeometry x="-503" y="-2680" width="180" height="200" as="geometry" />
        </mxCell>
        <mxCell id="ZuCImtXs0Fwf6ti-tjpx-59" value="" style="shape=partialRectangle;collapsible=0;dropTarget=0;pointerEvents=0;fillColor=none;top=0;left=0;bottom=1;right=0;points=[[0,0.5],[1,0.5]];portConstraint=eastwest;" vertex="1" parent="ZuCImtXs0Fwf6ti-tjpx-58">
          <mxGeometry y="30" width="180" height="30" as="geometry" />
        </mxCell>
        <mxCell id="ZuCImtXs0Fwf6ti-tjpx-60" value="PK" style="shape=partialRectangle;connectable=0;fillColor=none;top=0;left=0;bottom=0;right=0;fontStyle=1;overflow=hidden;" vertex="1" parent="ZuCImtXs0Fwf6ti-tjpx-59">
          <mxGeometry width="30" height="30" as="geometry" />
        </mxCell>
        <mxCell id="ZuCImtXs0Fwf6ti-tjpx-61" value="カート.ID" style="shape=partialRectangle;connectable=0;fillColor=none;top=0;left=0;bottom=0;right=0;align=left;spacingLeft=6;fontStyle=5;overflow=hidden;" vertex="1" parent="ZuCImtXs0Fwf6ti-tjpx-59">
          <mxGeometry x="30" width="150" height="30" as="geometry" />
        </mxCell>
        <mxCell id="ZuCImtXs0Fwf6ti-tjpx-62" value="" style="shape=partialRectangle;collapsible=0;dropTarget=0;pointerEvents=0;fillColor=none;top=0;left=0;bottom=0;right=0;points=[[0,0.5],[1,0.5]];portConstraint=eastwest;" vertex="1" parent="ZuCImtXs0Fwf6ti-tjpx-58">
          <mxGeometry y="60" width="180" height="30" as="geometry" />
        </mxCell>
        <mxCell id="ZuCImtXs0Fwf6ti-tjpx-63" value="" style="shape=partialRectangle;connectable=0;fillColor=none;top=0;left=0;bottom=0;right=0;editable=1;overflow=hidden;" vertex="1" parent="ZuCImtXs0Fwf6ti-tjpx-62">
          <mxGeometry width="30" height="30" as="geometry" />
        </mxCell>
        <mxCell id="ZuCImtXs0Fwf6ti-tjpx-64" value="・会員ID" style="shape=partialRectangle;connectable=0;fillColor=none;top=0;left=0;bottom=0;right=0;align=left;spacingLeft=6;overflow=hidden;" vertex="1" parent="ZuCImtXs0Fwf6ti-tjpx-62">
          <mxGeometry x="30" width="150" height="30" as="geometry" />
        </mxCell>
        <mxCell id="ZuCImtXs0Fwf6ti-tjpx-65" value="" style="shape=partialRectangle;collapsible=0;dropTarget=0;pointerEvents=0;fillColor=none;top=0;left=0;bottom=0;right=0;points=[[0,0.5],[1,0.5]];portConstraint=eastwest;" vertex="1" parent="ZuCImtXs0Fwf6ti-tjpx-58">
          <mxGeometry y="90" width="180" height="30" as="geometry" />
        </mxCell>
        <mxCell id="ZuCImtXs0Fwf6ti-tjpx-66" value="" style="shape=partialRectangle;connectable=0;fillColor=none;top=0;left=0;bottom=0;right=0;editable=1;overflow=hidden;" vertex="1" parent="ZuCImtXs0Fwf6ti-tjpx-65">
          <mxGeometry width="30" height="30" as="geometry" />
        </mxCell>
        <mxCell id="ZuCImtXs0Fwf6ti-tjpx-67" value="・商品ID" style="shape=partialRectangle;connectable=0;fillColor=none;top=0;left=0;bottom=0;right=0;align=left;spacingLeft=6;overflow=hidden;" vertex="1" parent="ZuCImtXs0Fwf6ti-tjpx-65">
          <mxGeometry x="30" width="150" height="30" as="geometry" />
        </mxCell>
        <mxCell id="ZuCImtXs0Fwf6ti-tjpx-68" value="" style="shape=partialRectangle;collapsible=0;dropTarget=0;pointerEvents=0;fillColor=none;top=0;left=0;bottom=0;right=0;points=[[0,0.5],[1,0.5]];portConstraint=eastwest;" vertex="1" parent="ZuCImtXs0Fwf6ti-tjpx-58">
          <mxGeometry y="120" width="180" height="30" as="geometry" />
        </mxCell>
        <mxCell id="ZuCImtXs0Fwf6ti-tjpx-69" value="" style="shape=partialRectangle;connectable=0;fillColor=none;top=0;left=0;bottom=0;right=0;editable=1;overflow=hidden;" vertex="1" parent="ZuCImtXs0Fwf6ti-tjpx-68">
          <mxGeometry width="30" height="30" as="geometry" />
        </mxCell>
        <mxCell id="ZuCImtXs0Fwf6ti-tjpx-70" value="・個数" style="shape=partialRectangle;connectable=0;fillColor=none;top=0;left=0;bottom=0;right=0;align=left;spacingLeft=6;overflow=hidden;" vertex="1" parent="ZuCImtXs0Fwf6ti-tjpx-68">
          <mxGeometry x="30" width="150" height="30" as="geometry" />
        </mxCell>
        <mxCell id="ZuCImtXs0Fwf6ti-tjpx-111" value="" style="shape=partialRectangle;collapsible=0;dropTarget=0;pointerEvents=0;fillColor=none;top=0;left=0;bottom=0;right=0;points=[[0,0.5],[1,0.5]];portConstraint=eastwest;labelBackgroundColor=none;strokeColor=#000000;strokeWidth=1;fontSize=14;" vertex="1" parent="ZuCImtXs0Fwf6ti-tjpx-58">
          <mxGeometry y="150" width="180" height="30" as="geometry" />
        </mxCell>
        <mxCell id="ZuCImtXs0Fwf6ti-tjpx-112" value="" style="shape=partialRectangle;connectable=0;fillColor=none;top=0;left=0;bottom=0;right=0;editable=1;overflow=hidden;" vertex="1" parent="ZuCImtXs0Fwf6ti-tjpx-111">
          <mxGeometry width="30" height="30" as="geometry" />
        </mxCell>
        <mxCell id="ZuCImtXs0Fwf6ti-tjpx-113" value="" style="shape=partialRectangle;connectable=0;fillColor=none;top=0;left=0;bottom=0;right=0;align=left;spacingLeft=6;overflow=hidden;" vertex="1" parent="ZuCImtXs0Fwf6ti-tjpx-111">
          <mxGeometry x="30" width="150" height="30" as="geometry" />
        </mxCell>
        <mxCell id="ZuCImtXs0Fwf6ti-tjpx-71" value="" style="edgeStyle=entityRelationEdgeStyle;fontSize=12;html=1;endArrow=ERone;endFill=1;exitX=1.017;exitY=0.867;exitDx=0;exitDy=0;exitPerimeter=0;rounded=0;" edge="1" parent="1" source="ZuCImtXs0Fwf6ti-tjpx-21">
          <mxGeometry width="100" height="100" relative="1" as="geometry">
            <mxPoint x="-600" y="-2550" as="sourcePoint" />
            <mxPoint x="-510" y="-2650" as="targetPoint" />
          </mxGeometry>
        </mxCell>
        <mxCell id="ZuCImtXs0Fwf6ti-tjpx-74" value="商品" style="shape=table;startSize=30;container=1;collapsible=1;childLayout=tableLayout;fixedRows=1;rowLines=0;fontStyle=1;align=center;resizeLast=1;labelBackgroundColor=none;strokeColor=#000000;strokeWidth=1;fillColor=#ffffff;fontSize=14;" vertex="1" parent="1">
          <mxGeometry x="-170" y="-2770" width="170" height="240" as="geometry" />
        </mxCell>
        <mxCell id="ZuCImtXs0Fwf6ti-tjpx-75" value="" style="shape=partialRectangle;collapsible=0;dropTarget=0;pointerEvents=0;fillColor=none;top=0;left=0;bottom=1;right=0;points=[[0,0.5],[1,0.5]];portConstraint=eastwest;" vertex="1" parent="ZuCImtXs0Fwf6ti-tjpx-74">
          <mxGeometry y="30" width="170" height="30" as="geometry" />
        </mxCell>
        <mxCell id="ZuCImtXs0Fwf6ti-tjpx-76" value="PK" style="shape=partialRectangle;connectable=0;fillColor=none;top=0;left=0;bottom=0;right=0;fontStyle=1;overflow=hidden;" vertex="1" parent="ZuCImtXs0Fwf6ti-tjpx-75">
          <mxGeometry width="30" height="30" as="geometry" />
        </mxCell>
        <mxCell id="ZuCImtXs0Fwf6ti-tjpx-77" value="商品.ID" style="shape=partialRectangle;connectable=0;fillColor=none;top=0;left=0;bottom=0;right=0;align=left;spacingLeft=6;fontStyle=5;overflow=hidden;" vertex="1" parent="ZuCImtXs0Fwf6ti-tjpx-75">
          <mxGeometry x="30" width="140" height="30" as="geometry" />
        </mxCell>
        <mxCell id="ZuCImtXs0Fwf6ti-tjpx-78" value="" style="shape=partialRectangle;collapsible=0;dropTarget=0;pointerEvents=0;fillColor=none;top=0;left=0;bottom=0;right=0;points=[[0,0.5],[1,0.5]];portConstraint=eastwest;" vertex="1" parent="ZuCImtXs0Fwf6ti-tjpx-74">
          <mxGeometry y="60" width="170" height="30" as="geometry" />
        </mxCell>
        <mxCell id="ZuCImtXs0Fwf6ti-tjpx-79" value="" style="shape=partialRectangle;connectable=0;fillColor=none;top=0;left=0;bottom=0;right=0;editable=1;overflow=hidden;" vertex="1" parent="ZuCImtXs0Fwf6ti-tjpx-78">
          <mxGeometry width="30" height="30" as="geometry" />
        </mxCell>
        <mxCell id="ZuCImtXs0Fwf6ti-tjpx-80" value="・名前" style="shape=partialRectangle;connectable=0;fillColor=none;top=0;left=0;bottom=0;right=0;align=left;spacingLeft=6;overflow=hidden;" vertex="1" parent="ZuCImtXs0Fwf6ti-tjpx-78">
          <mxGeometry x="30" width="140" height="30" as="geometry" />
        </mxCell>
        <mxCell id="ZuCImtXs0Fwf6ti-tjpx-81" value="" style="shape=partialRectangle;collapsible=0;dropTarget=0;pointerEvents=0;fillColor=none;top=0;left=0;bottom=0;right=0;points=[[0,0.5],[1,0.5]];portConstraint=eastwest;" vertex="1" parent="ZuCImtXs0Fwf6ti-tjpx-74">
          <mxGeometry y="90" width="170" height="30" as="geometry" />
        </mxCell>
        <mxCell id="ZuCImtXs0Fwf6ti-tjpx-82" value="" style="shape=partialRectangle;connectable=0;fillColor=none;top=0;left=0;bottom=0;right=0;editable=1;overflow=hidden;" vertex="1" parent="ZuCImtXs0Fwf6ti-tjpx-81">
          <mxGeometry width="30" height="30" as="geometry" />
        </mxCell>
        <mxCell id="ZuCImtXs0Fwf6ti-tjpx-83" value="・税抜価格" style="shape=partialRectangle;connectable=0;fillColor=none;top=0;left=0;bottom=0;right=0;align=left;spacingLeft=6;overflow=hidden;" vertex="1" parent="ZuCImtXs0Fwf6ti-tjpx-81">
          <mxGeometry x="30" width="140" height="30" as="geometry" />
        </mxCell>
        <mxCell id="ZuCImtXs0Fwf6ti-tjpx-98" value="" style="shape=partialRectangle;collapsible=0;dropTarget=0;pointerEvents=0;fillColor=none;top=0;left=0;bottom=0;right=0;points=[[0,0.5],[1,0.5]];portConstraint=eastwest;" vertex="1" parent="ZuCImtXs0Fwf6ti-tjpx-74">
          <mxGeometry y="120" width="170" height="30" as="geometry" />
        </mxCell>
        <mxCell id="ZuCImtXs0Fwf6ti-tjpx-99" value="" style="shape=partialRectangle;connectable=0;fillColor=none;top=0;left=0;bottom=0;right=0;editable=1;overflow=hidden;" vertex="1" parent="ZuCImtXs0Fwf6ti-tjpx-98">
          <mxGeometry width="30" height="30" as="geometry" />
        </mxCell>
        <mxCell id="ZuCImtXs0Fwf6ti-tjpx-100" value="・商品画像" style="shape=partialRectangle;connectable=0;fillColor=none;top=0;left=0;bottom=0;right=0;align=left;spacingLeft=6;overflow=hidden;" vertex="1" parent="ZuCImtXs0Fwf6ti-tjpx-98">
          <mxGeometry x="30" width="140" height="30" as="geometry" />
        </mxCell>
        <mxCell id="ZuCImtXs0Fwf6ti-tjpx-122" value="" style="shape=partialRectangle;collapsible=0;dropTarget=0;pointerEvents=0;fillColor=none;top=0;left=0;bottom=0;right=0;points=[[0,0.5],[1,0.5]];portConstraint=eastwest;" vertex="1" parent="ZuCImtXs0Fwf6ti-tjpx-74">
          <mxGeometry y="150" width="170" height="30" as="geometry" />
        </mxCell>
        <mxCell id="ZuCImtXs0Fwf6ti-tjpx-123" value="" style="shape=partialRectangle;connectable=0;fillColor=none;top=0;left=0;bottom=0;right=0;editable=1;overflow=hidden;" vertex="1" parent="ZuCImtXs0Fwf6ti-tjpx-122">
          <mxGeometry width="30" height="30" as="geometry" />
        </mxCell>
        <mxCell id="ZuCImtXs0Fwf6ti-tjpx-124" value="・販売ステータス" style="shape=partialRectangle;connectable=0;fillColor=none;top=0;left=0;bottom=0;right=0;align=left;spacingLeft=6;overflow=hidden;" vertex="1" parent="ZuCImtXs0Fwf6ti-tjpx-122">
          <mxGeometry x="30" width="140" height="30" as="geometry" />
        </mxCell>
        <mxCell id="ZuCImtXs0Fwf6ti-tjpx-234" value="" style="shape=partialRectangle;collapsible=0;dropTarget=0;pointerEvents=0;fillColor=none;top=0;left=0;bottom=0;right=0;points=[[0,0.5],[1,0.5]];portConstraint=eastwest;labelBackgroundColor=none;strokeColor=#000000;strokeWidth=1;fontSize=14;" vertex="1" parent="ZuCImtXs0Fwf6ti-tjpx-74">
          <mxGeometry y="180" width="170" height="30" as="geometry" />
        </mxCell>
        <mxCell id="ZuCImtXs0Fwf6ti-tjpx-235" value="" style="shape=partialRectangle;connectable=0;fillColor=none;top=0;left=0;bottom=0;right=0;editable=1;overflow=hidden;" vertex="1" parent="ZuCImtXs0Fwf6ti-tjpx-234">
          <mxGeometry width="30" height="30" as="geometry" />
        </mxCell>
        <mxCell id="ZuCImtXs0Fwf6ti-tjpx-236" value="・管理者ID" style="shape=partialRectangle;connectable=0;fillColor=none;top=0;left=0;bottom=0;right=0;align=left;spacingLeft=6;overflow=hidden;" vertex="1" parent="ZuCImtXs0Fwf6ti-tjpx-234">
          <mxGeometry x="30" width="140" height="30" as="geometry" />
        </mxCell>
        <mxCell id="ZuCImtXs0Fwf6ti-tjpx-84" value="" style="shape=partialRectangle;collapsible=0;dropTarget=0;pointerEvents=0;fillColor=none;top=0;left=0;bottom=0;right=0;points=[[0,0.5],[1,0.5]];portConstraint=eastwest;" vertex="1" parent="ZuCImtXs0Fwf6ti-tjpx-74">
          <mxGeometry y="210" width="170" height="30" as="geometry" />
        </mxCell>
        <mxCell id="ZuCImtXs0Fwf6ti-tjpx-85" value="" style="shape=partialRectangle;connectable=0;fillColor=none;top=0;left=0;bottom=0;right=0;editable=1;overflow=hidden;" vertex="1" parent="ZuCImtXs0Fwf6ti-tjpx-84">
          <mxGeometry width="30" height="30" as="geometry" />
        </mxCell>
        <mxCell id="ZuCImtXs0Fwf6ti-tjpx-86" value="" style="shape=partialRectangle;connectable=0;fillColor=none;top=0;left=0;bottom=0;right=0;align=left;spacingLeft=6;overflow=hidden;" vertex="1" parent="ZuCImtXs0Fwf6ti-tjpx-84">
          <mxGeometry x="30" width="140" height="30" as="geometry" />
        </mxCell>
        <mxCell id="ZuCImtXs0Fwf6ti-tjpx-209" value="管理者" style="shape=table;startSize=30;container=1;collapsible=1;childLayout=tableLayout;fixedRows=1;rowLines=0;fontStyle=1;align=center;resizeLast=1;labelBackgroundColor=none;strokeColor=#000000;strokeWidth=1;fillColor=#ffffff;fontSize=14;" vertex="1" parent="1">
          <mxGeometry x="-800" y="-3200" width="180" height="300" as="geometry" />
        </mxCell>
        <mxCell id="ZuCImtXs0Fwf6ti-tjpx-210" value="" style="shape=partialRectangle;collapsible=0;dropTarget=0;pointerEvents=0;fillColor=none;top=0;left=0;bottom=1;right=0;points=[[0,0.5],[1,0.5]];portConstraint=eastwest;" vertex="1" parent="ZuCImtXs0Fwf6ti-tjpx-209">
          <mxGeometry y="30" width="180" height="30" as="geometry" />
        </mxCell>
        <mxCell id="ZuCImtXs0Fwf6ti-tjpx-211" value="PK" style="shape=partialRectangle;connectable=0;fillColor=none;top=0;left=0;bottom=0;right=0;fontStyle=1;overflow=hidden;" vertex="1" parent="ZuCImtXs0Fwf6ti-tjpx-210">
          <mxGeometry width="30" height="30" as="geometry" />
        </mxCell>
        <mxCell id="ZuCImtXs0Fwf6ti-tjpx-212" value="ID" style="shape=partialRectangle;connectable=0;fillColor=none;top=0;left=0;bottom=0;right=0;align=left;spacingLeft=6;fontStyle=5;overflow=hidden;" vertex="1" parent="ZuCImtXs0Fwf6ti-tjpx-210">
          <mxGeometry x="30" width="150" height="30" as="geometry" />
        </mxCell>
        <mxCell id="ZuCImtXs0Fwf6ti-tjpx-213" value="" style="shape=partialRectangle;collapsible=0;dropTarget=0;pointerEvents=0;fillColor=none;top=0;left=0;bottom=0;right=0;points=[[0,0.5],[1,0.5]];portConstraint=eastwest;" vertex="1" parent="ZuCImtXs0Fwf6ti-tjpx-209">
          <mxGeometry y="60" width="180" height="60" as="geometry" />
        </mxCell>
        <mxCell id="ZuCImtXs0Fwf6ti-tjpx-214" value="" style="shape=partialRectangle;connectable=0;fillColor=none;top=0;left=0;bottom=0;right=0;editable=1;overflow=hidden;" vertex="1" parent="ZuCImtXs0Fwf6ti-tjpx-213">
          <mxGeometry width="30" height="60" as="geometry" />
        </mxCell>
        <mxCell id="ZuCImtXs0Fwf6ti-tjpx-215" value="・メール" style="shape=partialRectangle;connectable=0;fillColor=none;top=0;left=0;bottom=0;right=0;align=left;spacingLeft=6;overflow=hidden;" vertex="1" parent="ZuCImtXs0Fwf6ti-tjpx-213">
          <mxGeometry x="30" width="150" height="60" as="geometry" />
        </mxCell>
        <mxCell id="ZuCImtXs0Fwf6ti-tjpx-216" value="" style="shape=partialRectangle;collapsible=0;dropTarget=0;pointerEvents=0;fillColor=none;top=0;left=0;bottom=0;right=0;points=[[0,0.5],[1,0.5]];portConstraint=eastwest;" vertex="1" parent="ZuCImtXs0Fwf6ti-tjpx-209">
          <mxGeometry y="120" width="180" height="30" as="geometry" />
        </mxCell>
        <mxCell id="ZuCImtXs0Fwf6ti-tjpx-217" value="" style="shape=partialRectangle;connectable=0;fillColor=none;top=0;left=0;bottom=0;right=0;editable=1;overflow=hidden;" vertex="1" parent="ZuCImtXs0Fwf6ti-tjpx-216">
          <mxGeometry width="30" height="30" as="geometry" />
        </mxCell>
        <mxCell id="ZuCImtXs0Fwf6ti-tjpx-218" value="・パスワード" style="shape=partialRectangle;connectable=0;fillColor=none;top=0;left=0;bottom=0;right=0;align=left;spacingLeft=6;overflow=hidden;" vertex="1" parent="ZuCImtXs0Fwf6ti-tjpx-216">
          <mxGeometry x="30" width="150" height="30" as="geometry" />
        </mxCell>
        <mxCell id="ZuCImtXs0Fwf6ti-tjpx-226" value="" style="shape=partialRectangle;collapsible=0;dropTarget=0;pointerEvents=0;fillColor=none;top=0;left=0;bottom=0;right=0;points=[[0,0.5],[1,0.5]];portConstraint=eastwest;labelBackgroundColor=none;strokeColor=#000000;strokeWidth=1;fontSize=14;" vertex="1" parent="ZuCImtXs0Fwf6ti-tjpx-209">
          <mxGeometry y="150" width="180" height="30" as="geometry" />
        </mxCell>
        <mxCell id="ZuCImtXs0Fwf6ti-tjpx-227" value="" style="shape=partialRectangle;connectable=0;fillColor=none;top=0;left=0;bottom=0;right=0;editable=1;overflow=hidden;" vertex="1" parent="ZuCImtXs0Fwf6ti-tjpx-226">
          <mxGeometry width="30" height="30" as="geometry" />
        </mxCell>
        <mxCell id="ZuCImtXs0Fwf6ti-tjpx-228" value="・ログイン" style="shape=partialRectangle;connectable=0;fillColor=none;top=0;left=0;bottom=0;right=0;align=left;spacingLeft=6;overflow=hidden;" vertex="1" parent="ZuCImtXs0Fwf6ti-tjpx-226">
          <mxGeometry x="30" width="150" height="30" as="geometry" />
        </mxCell>
        <mxCell id="ZuCImtXs0Fwf6ti-tjpx-229" value="" style="shape=partialRectangle;collapsible=0;dropTarget=0;pointerEvents=0;fillColor=none;top=0;left=0;bottom=0;right=0;points=[[0,0.5],[1,0.5]];portConstraint=eastwest;labelBackgroundColor=none;strokeColor=#000000;strokeWidth=1;fontSize=14;" vertex="1" parent="ZuCImtXs0Fwf6ti-tjpx-209">
          <mxGeometry y="180" width="180" height="30" as="geometry" />
        </mxCell>
        <mxCell id="ZuCImtXs0Fwf6ti-tjpx-230" value="" style="shape=partialRectangle;connectable=0;fillColor=none;top=0;left=0;bottom=0;right=0;editable=1;overflow=hidden;" vertex="1" parent="ZuCImtXs0Fwf6ti-tjpx-229">
          <mxGeometry width="30" height="30" as="geometry" />
        </mxCell>
        <mxCell id="ZuCImtXs0Fwf6ti-tjpx-231" value="・ログアウト" style="shape=partialRectangle;connectable=0;fillColor=none;top=0;left=0;bottom=0;right=0;align=left;spacingLeft=6;overflow=hidden;" vertex="1" parent="ZuCImtXs0Fwf6ti-tjpx-229">
          <mxGeometry x="30" width="150" height="30" as="geometry" />
        </mxCell>
        <mxCell id="ZuCImtXs0Fwf6ti-tjpx-305" value="" style="shape=partialRectangle;collapsible=0;dropTarget=0;pointerEvents=0;fillColor=none;top=0;left=0;bottom=0;right=0;points=[[0,0.5],[1,0.5]];portConstraint=eastwest;labelBackgroundColor=none;strokeColor=#000000;strokeWidth=1;fontSize=14;" vertex="1" parent="ZuCImtXs0Fwf6ti-tjpx-209">
          <mxGeometry y="210" width="180" height="30" as="geometry" />
        </mxCell>
        <mxCell id="ZuCImtXs0Fwf6ti-tjpx-306" value="" style="shape=partialRectangle;connectable=0;fillColor=none;top=0;left=0;bottom=0;right=0;editable=1;overflow=hidden;" vertex="1" parent="ZuCImtXs0Fwf6ti-tjpx-305">
          <mxGeometry width="30" height="30" as="geometry" />
        </mxCell>
        <mxCell id="ZuCImtXs0Fwf6ti-tjpx-307" value="・登録日" style="shape=partialRectangle;connectable=0;fillColor=none;top=0;left=0;bottom=0;right=0;align=left;spacingLeft=6;overflow=hidden;" vertex="1" parent="ZuCImtXs0Fwf6ti-tjpx-305">
          <mxGeometry x="30" width="150" height="30" as="geometry" />
        </mxCell>
        <mxCell id="ZuCImtXs0Fwf6ti-tjpx-308" value="" style="shape=partialRectangle;collapsible=0;dropTarget=0;pointerEvents=0;fillColor=none;top=0;left=0;bottom=0;right=0;points=[[0,0.5],[1,0.5]];portConstraint=eastwest;labelBackgroundColor=none;strokeColor=#000000;strokeWidth=1;fontSize=14;" vertex="1" parent="ZuCImtXs0Fwf6ti-tjpx-209">
          <mxGeometry y="240" width="180" height="30" as="geometry" />
        </mxCell>
        <mxCell id="ZuCImtXs0Fwf6ti-tjpx-309" value="" style="shape=partialRectangle;connectable=0;fillColor=none;top=0;left=0;bottom=0;right=0;editable=1;overflow=hidden;" vertex="1" parent="ZuCImtXs0Fwf6ti-tjpx-308">
          <mxGeometry width="30" height="30" as="geometry" />
        </mxCell>
        <mxCell id="ZuCImtXs0Fwf6ti-tjpx-310" value="・更新日" style="shape=partialRectangle;connectable=0;fillColor=none;top=0;left=0;bottom=0;right=0;align=left;spacingLeft=6;overflow=hidden;" vertex="1" parent="ZuCImtXs0Fwf6ti-tjpx-308">
          <mxGeometry x="30" width="150" height="30" as="geometry" />
        </mxCell>
        <mxCell id="ZuCImtXs0Fwf6ti-tjpx-219" value="" style="shape=partialRectangle;collapsible=0;dropTarget=0;pointerEvents=0;fillColor=none;top=0;left=0;bottom=0;right=0;points=[[0,0.5],[1,0.5]];portConstraint=eastwest;" vertex="1" parent="ZuCImtXs0Fwf6ti-tjpx-209">
          <mxGeometry y="270" width="180" height="30" as="geometry" />
        </mxCell>
        <mxCell id="ZuCImtXs0Fwf6ti-tjpx-220" value="" style="shape=partialRectangle;connectable=0;fillColor=none;top=0;left=0;bottom=0;right=0;editable=1;overflow=hidden;" vertex="1" parent="ZuCImtXs0Fwf6ti-tjpx-219">
          <mxGeometry width="30" height="30" as="geometry" />
        </mxCell>
        <mxCell id="ZuCImtXs0Fwf6ti-tjpx-221" value="" style="shape=partialRectangle;connectable=0;fillColor=none;top=0;left=0;bottom=0;right=0;align=left;spacingLeft=6;overflow=hidden;" vertex="1" parent="ZuCImtXs0Fwf6ti-tjpx-219">
          <mxGeometry x="30" width="150" height="30" as="geometry" />
        </mxCell>
        <mxCell id="ZuCImtXs0Fwf6ti-tjpx-222" value="" style="edgeStyle=entityRelationEdgeStyle;fontSize=12;html=1;endArrow=ERoneToMany;" edge="1" parent="1">
          <mxGeometry width="100" height="100" relative="1" as="geometry">
            <mxPoint x="-620" y="-3155" as="sourcePoint" />
            <mxPoint x="-790" y="-2560" as="targetPoint" />
          </mxGeometry>
        </mxCell>
        <mxCell id="ZuCImtXs0Fwf6ti-tjpx-237" value="注文詳細機能" style="shape=table;startSize=30;container=1;collapsible=1;childLayout=tableLayout;fixedRows=1;rowLines=0;fontStyle=1;align=center;resizeLast=1;labelBackgroundColor=none;strokeColor=#000000;strokeWidth=1;fillColor=#ffffff;fontSize=14;" vertex="1" parent="1">
          <mxGeometry x="-510" y="-2350" width="180" height="230" as="geometry" />
        </mxCell>
        <mxCell id="ZuCImtXs0Fwf6ti-tjpx-238" value="" style="shape=partialRectangle;collapsible=0;dropTarget=0;pointerEvents=0;fillColor=none;top=0;left=0;bottom=1;right=0;points=[[0,0.5],[1,0.5]];portConstraint=eastwest;" vertex="1" parent="ZuCImtXs0Fwf6ti-tjpx-237">
          <mxGeometry y="30" width="180" height="30" as="geometry" />
        </mxCell>
        <mxCell id="ZuCImtXs0Fwf6ti-tjpx-239" value="PK" style="shape=partialRectangle;connectable=0;fillColor=none;top=0;left=0;bottom=0;right=0;fontStyle=1;overflow=hidden;" vertex="1" parent="ZuCImtXs0Fwf6ti-tjpx-238">
          <mxGeometry width="30" height="30" as="geometry" />
        </mxCell>
        <mxCell id="ZuCImtXs0Fwf6ti-tjpx-240" value="UniqueID" style="shape=partialRectangle;connectable=0;fillColor=none;top=0;left=0;bottom=0;right=0;align=left;spacingLeft=6;fontStyle=5;overflow=hidden;" vertex="1" parent="ZuCImtXs0Fwf6ti-tjpx-238">
          <mxGeometry x="30" width="150" height="30" as="geometry" />
        </mxCell>
        <mxCell id="ZuCImtXs0Fwf6ti-tjpx-241" value="" style="shape=partialRectangle;collapsible=0;dropTarget=0;pointerEvents=0;fillColor=none;top=0;left=0;bottom=0;right=0;points=[[0,0.5],[1,0.5]];portConstraint=eastwest;" vertex="1" parent="ZuCImtXs0Fwf6ti-tjpx-237">
          <mxGeometry y="60" width="180" height="30" as="geometry" />
        </mxCell>
        <mxCell id="ZuCImtXs0Fwf6ti-tjpx-242" value="" style="shape=partialRectangle;connectable=0;fillColor=none;top=0;left=0;bottom=0;right=0;editable=1;overflow=hidden;" vertex="1" parent="ZuCImtXs0Fwf6ti-tjpx-241">
          <mxGeometry width="30" height="30" as="geometry" />
        </mxCell>
        <mxCell id="ZuCImtXs0Fwf6ti-tjpx-243" value="・商品ID" style="shape=partialRectangle;connectable=0;fillColor=none;top=0;left=0;bottom=0;right=0;align=left;spacingLeft=6;overflow=hidden;" vertex="1" parent="ZuCImtXs0Fwf6ti-tjpx-241">
          <mxGeometry x="30" width="150" height="30" as="geometry" />
        </mxCell>
        <mxCell id="ZuCImtXs0Fwf6ti-tjpx-244" value="" style="shape=partialRectangle;collapsible=0;dropTarget=0;pointerEvents=0;fillColor=none;top=0;left=0;bottom=0;right=0;points=[[0,0.5],[1,0.5]];portConstraint=eastwest;" vertex="1" parent="ZuCImtXs0Fwf6ti-tjpx-237">
          <mxGeometry y="90" width="180" height="30" as="geometry" />
        </mxCell>
        <mxCell id="ZuCImtXs0Fwf6ti-tjpx-245" value="" style="shape=partialRectangle;connectable=0;fillColor=none;top=0;left=0;bottom=0;right=0;editable=1;overflow=hidden;" vertex="1" parent="ZuCImtXs0Fwf6ti-tjpx-244">
          <mxGeometry width="30" height="30" as="geometry" />
        </mxCell>
        <mxCell id="ZuCImtXs0Fwf6ti-tjpx-246" value="・個数" style="shape=partialRectangle;connectable=0;fillColor=none;top=0;left=0;bottom=0;right=0;align=left;spacingLeft=6;overflow=hidden;" vertex="1" parent="ZuCImtXs0Fwf6ti-tjpx-244">
          <mxGeometry x="30" width="150" height="30" as="geometry" />
        </mxCell>
        <mxCell id="ZuCImtXs0Fwf6ti-tjpx-253" value="" style="shape=partialRectangle;collapsible=0;dropTarget=0;pointerEvents=0;fillColor=none;top=0;left=0;bottom=0;right=0;points=[[0,0.5],[1,0.5]];portConstraint=eastwest;labelBackgroundColor=none;strokeColor=#000000;strokeWidth=1;fontSize=14;" vertex="1" parent="ZuCImtXs0Fwf6ti-tjpx-237">
          <mxGeometry y="120" width="180" height="50" as="geometry" />
        </mxCell>
        <mxCell id="ZuCImtXs0Fwf6ti-tjpx-254" value="" style="shape=partialRectangle;connectable=0;fillColor=none;top=0;left=0;bottom=0;right=0;editable=1;overflow=hidden;" vertex="1" parent="ZuCImtXs0Fwf6ti-tjpx-253">
          <mxGeometry width="30" height="50" as="geometry" />
        </mxCell>
        <mxCell id="ZuCImtXs0Fwf6ti-tjpx-255" value="・注文ステータス" style="shape=partialRectangle;connectable=0;fillColor=none;top=0;left=0;bottom=0;right=0;align=left;spacingLeft=6;overflow=hidden;" vertex="1" parent="ZuCImtXs0Fwf6ti-tjpx-253">
          <mxGeometry x="30" width="150" height="50" as="geometry" />
        </mxCell>
        <mxCell id="ZuCImtXs0Fwf6ti-tjpx-260" value="" style="shape=partialRectangle;collapsible=0;dropTarget=0;pointerEvents=0;fillColor=none;top=0;left=0;bottom=0;right=0;points=[[0,0.5],[1,0.5]];portConstraint=eastwest;labelBackgroundColor=none;strokeColor=#000000;strokeWidth=1;fontSize=14;" vertex="1" parent="ZuCImtXs0Fwf6ti-tjpx-237">
          <mxGeometry y="170" width="180" height="30" as="geometry" />
        </mxCell>
        <mxCell id="ZuCImtXs0Fwf6ti-tjpx-261" value="" style="shape=partialRectangle;connectable=0;fillColor=none;top=0;left=0;bottom=0;right=0;editable=1;overflow=hidden;" vertex="1" parent="ZuCImtXs0Fwf6ti-tjpx-260">
          <mxGeometry width="30" height="30" as="geometry" />
        </mxCell>
        <mxCell id="ZuCImtXs0Fwf6ti-tjpx-262" value="・制作ステータス" style="shape=partialRectangle;connectable=0;fillColor=none;top=0;left=0;bottom=0;right=0;align=left;spacingLeft=6;overflow=hidden;" vertex="1" parent="ZuCImtXs0Fwf6ti-tjpx-260">
          <mxGeometry x="30" width="150" height="30" as="geometry" />
        </mxCell>
        <mxCell id="ZuCImtXs0Fwf6ti-tjpx-296" value="" style="shape=partialRectangle;collapsible=0;dropTarget=0;pointerEvents=0;fillColor=none;top=0;left=0;bottom=0;right=0;points=[[0,0.5],[1,0.5]];portConstraint=eastwest;labelBackgroundColor=none;strokeColor=#000000;strokeWidth=1;fontSize=14;" vertex="1" parent="ZuCImtXs0Fwf6ti-tjpx-237">
          <mxGeometry y="200" width="180" height="30" as="geometry" />
        </mxCell>
        <mxCell id="ZuCImtXs0Fwf6ti-tjpx-297" value="" style="shape=partialRectangle;connectable=0;fillColor=none;top=0;left=0;bottom=0;right=0;editable=1;overflow=hidden;" vertex="1" parent="ZuCImtXs0Fwf6ti-tjpx-296">
          <mxGeometry width="30" height="30" as="geometry" />
        </mxCell>
        <mxCell id="ZuCImtXs0Fwf6ti-tjpx-298" value="・注文ID" style="shape=partialRectangle;connectable=0;fillColor=none;top=0;left=0;bottom=0;right=0;align=left;spacingLeft=6;overflow=hidden;" vertex="1" parent="ZuCImtXs0Fwf6ti-tjpx-296">
          <mxGeometry x="30" width="150" height="30" as="geometry" />
        </mxCell>
        <mxCell id="ZuCImtXs0Fwf6ti-tjpx-274" value="注文" style="shape=table;startSize=30;container=1;collapsible=1;childLayout=tableLayout;fixedRows=1;rowLines=0;fontStyle=1;align=center;resizeLast=1;labelBackgroundColor=none;strokeColor=#000000;strokeWidth=1;fillColor=#ffffff;fontSize=14;" vertex="1" parent="1">
          <mxGeometry x="-780" y="-2400" width="180" height="220" as="geometry" />
        </mxCell>
        <mxCell id="ZuCImtXs0Fwf6ti-tjpx-275" value="" style="shape=partialRectangle;collapsible=0;dropTarget=0;pointerEvents=0;fillColor=none;top=0;left=0;bottom=1;right=0;points=[[0,0.5],[1,0.5]];portConstraint=eastwest;" vertex="1" parent="ZuCImtXs0Fwf6ti-tjpx-274">
          <mxGeometry y="30" width="180" height="30" as="geometry" />
        </mxCell>
        <mxCell id="ZuCImtXs0Fwf6ti-tjpx-276" value="PK" style="shape=partialRectangle;connectable=0;fillColor=none;top=0;left=0;bottom=0;right=0;fontStyle=1;overflow=hidden;" vertex="1" parent="ZuCImtXs0Fwf6ti-tjpx-275">
          <mxGeometry width="30" height="30" as="geometry" />
        </mxCell>
        <mxCell id="ZuCImtXs0Fwf6ti-tjpx-277" value="注文ID" style="shape=partialRectangle;connectable=0;fillColor=none;top=0;left=0;bottom=0;right=0;align=left;spacingLeft=6;fontStyle=5;overflow=hidden;" vertex="1" parent="ZuCImtXs0Fwf6ti-tjpx-275">
          <mxGeometry x="30" width="150" height="30" as="geometry" />
        </mxCell>
        <mxCell id="ZuCImtXs0Fwf6ti-tjpx-278" value="" style="shape=partialRectangle;collapsible=0;dropTarget=0;pointerEvents=0;fillColor=none;top=0;left=0;bottom=0;right=0;points=[[0,0.5],[1,0.5]];portConstraint=eastwest;" vertex="1" parent="ZuCImtXs0Fwf6ti-tjpx-274">
          <mxGeometry y="60" width="180" height="30" as="geometry" />
        </mxCell>
        <mxCell id="ZuCImtXs0Fwf6ti-tjpx-279" value="" style="shape=partialRectangle;connectable=0;fillColor=none;top=0;left=0;bottom=0;right=0;editable=1;overflow=hidden;" vertex="1" parent="ZuCImtXs0Fwf6ti-tjpx-278">
          <mxGeometry width="30" height="30" as="geometry" />
        </mxCell>
        <mxCell id="ZuCImtXs0Fwf6ti-tjpx-280" value="・会員ID" style="shape=partialRectangle;connectable=0;fillColor=none;top=0;left=0;bottom=0;right=0;align=left;spacingLeft=6;overflow=hidden;" vertex="1" parent="ZuCImtXs0Fwf6ti-tjpx-278">
          <mxGeometry x="30" width="150" height="30" as="geometry" />
        </mxCell>
        <mxCell id="ZuCImtXs0Fwf6ti-tjpx-284" value="" style="shape=partialRectangle;collapsible=0;dropTarget=0;pointerEvents=0;fillColor=none;top=0;left=0;bottom=0;right=0;points=[[0,0.5],[1,0.5]];portConstraint=eastwest;" vertex="1" parent="ZuCImtXs0Fwf6ti-tjpx-274">
          <mxGeometry y="90" width="180" height="30" as="geometry" />
        </mxCell>
        <mxCell id="ZuCImtXs0Fwf6ti-tjpx-285" value="" style="shape=partialRectangle;connectable=0;fillColor=none;top=0;left=0;bottom=0;right=0;editable=1;overflow=hidden;" vertex="1" parent="ZuCImtXs0Fwf6ti-tjpx-284">
          <mxGeometry width="30" height="30" as="geometry" />
        </mxCell>
        <mxCell id="ZuCImtXs0Fwf6ti-tjpx-286" value="・送料" style="shape=partialRectangle;connectable=0;fillColor=none;top=0;left=0;bottom=0;right=0;align=left;spacingLeft=6;overflow=hidden;" vertex="1" parent="ZuCImtXs0Fwf6ti-tjpx-284">
          <mxGeometry x="30" width="150" height="30" as="geometry" />
        </mxCell>
        <mxCell id="ZuCImtXs0Fwf6ti-tjpx-287" value="" style="shape=partialRectangle;collapsible=0;dropTarget=0;pointerEvents=0;fillColor=none;top=0;left=0;bottom=0;right=0;points=[[0,0.5],[1,0.5]];portConstraint=eastwest;labelBackgroundColor=none;strokeColor=#000000;strokeWidth=1;fontSize=14;" vertex="1" parent="ZuCImtXs0Fwf6ti-tjpx-274">
          <mxGeometry y="120" width="180" height="30" as="geometry" />
        </mxCell>
        <mxCell id="ZuCImtXs0Fwf6ti-tjpx-288" value="" style="shape=partialRectangle;connectable=0;fillColor=none;top=0;left=0;bottom=0;right=0;editable=1;overflow=hidden;" vertex="1" parent="ZuCImtXs0Fwf6ti-tjpx-287">
          <mxGeometry width="30" height="30" as="geometry" />
        </mxCell>
        <mxCell id="ZuCImtXs0Fwf6ti-tjpx-289" value="・支払い方法" style="shape=partialRectangle;connectable=0;fillColor=none;top=0;left=0;bottom=0;right=0;align=left;spacingLeft=6;overflow=hidden;" vertex="1" parent="ZuCImtXs0Fwf6ti-tjpx-287">
          <mxGeometry x="30" width="150" height="30" as="geometry" />
        </mxCell>
        <mxCell id="ZuCImtXs0Fwf6ti-tjpx-355" value="" style="shape=partialRectangle;collapsible=0;dropTarget=0;pointerEvents=0;fillColor=none;top=0;left=0;bottom=0;right=0;points=[[0,0.5],[1,0.5]];portConstraint=eastwest;labelBackgroundColor=none;strokeColor=#000000;strokeWidth=1;fontSize=14;" vertex="1" parent="ZuCImtXs0Fwf6ti-tjpx-274">
          <mxGeometry y="150" width="180" height="30" as="geometry" />
        </mxCell>
        <mxCell id="ZuCImtXs0Fwf6ti-tjpx-356" value="" style="shape=partialRectangle;connectable=0;fillColor=none;top=0;left=0;bottom=0;right=0;editable=1;overflow=hidden;" vertex="1" parent="ZuCImtXs0Fwf6ti-tjpx-355">
          <mxGeometry width="30" height="30" as="geometry" />
        </mxCell>
        <mxCell id="ZuCImtXs0Fwf6ti-tjpx-357" value="・合計金額" style="shape=partialRectangle;connectable=0;fillColor=none;top=0;left=0;bottom=0;right=0;align=left;spacingLeft=6;overflow=hidden;" vertex="1" parent="ZuCImtXs0Fwf6ti-tjpx-355">
          <mxGeometry x="30" width="150" height="30" as="geometry" />
        </mxCell>
        <mxCell id="ZuCImtXs0Fwf6ti-tjpx-295" value="" style="edgeStyle=orthogonalEdgeStyle;fontSize=12;html=1;endArrow=ERoneToMany;entryX=1.017;entryY=0.16;entryDx=0;entryDy=0;entryPerimeter=0;exitX=-0.006;exitY=0.9;exitDx=0;exitDy=0;exitPerimeter=0;" edge="1" parent="1" source="ZuCImtXs0Fwf6ti-tjpx-84" target="ZuCImtXs0Fwf6ti-tjpx-253">
          <mxGeometry width="100" height="100" relative="1" as="geometry">
            <mxPoint x="-210" y="-2530" as="sourcePoint" />
            <mxPoint x="-480" y="-2200" as="targetPoint" />
          </mxGeometry>
        </mxCell>
        <mxCell id="ZuCImtXs0Fwf6ti-tjpx-304" style="edgeStyle=orthogonalEdgeStyle;rounded=0;orthogonalLoop=1;jettySize=auto;html=1;entryX=1;entryY=0.033;entryDx=0;entryDy=0;entryPerimeter=0;fontSize=14;" edge="1" parent="1" source="ZuCImtXs0Fwf6ti-tjpx-84" target="ZuCImtXs0Fwf6ti-tjpx-111">
          <mxGeometry relative="1" as="geometry" />
        </mxCell>
        <mxCell id="ZuCImtXs0Fwf6ti-tjpx-321" value="ジャンル" style="shape=table;startSize=30;container=1;collapsible=1;childLayout=tableLayout;fixedRows=1;rowLines=0;fontStyle=1;align=center;resizeLast=1;labelBackgroundColor=none;strokeColor=#000000;strokeWidth=1;fillColor=#ffffff;fontSize=14;" vertex="1" parent="1">
          <mxGeometry x="-180" y="-2500" width="180" height="150" as="geometry" />
        </mxCell>
        <mxCell id="ZuCImtXs0Fwf6ti-tjpx-322" value="" style="shape=partialRectangle;collapsible=0;dropTarget=0;pointerEvents=0;fillColor=none;top=0;left=0;bottom=1;right=0;points=[[0,0.5],[1,0.5]];portConstraint=eastwest;" vertex="1" parent="ZuCImtXs0Fwf6ti-tjpx-321">
          <mxGeometry y="30" width="180" height="30" as="geometry" />
        </mxCell>
        <mxCell id="ZuCImtXs0Fwf6ti-tjpx-323" value="PK" style="shape=partialRectangle;connectable=0;fillColor=none;top=0;left=0;bottom=0;right=0;fontStyle=1;overflow=hidden;" vertex="1" parent="ZuCImtXs0Fwf6ti-tjpx-322">
          <mxGeometry width="30" height="30" as="geometry" />
        </mxCell>
        <mxCell id="ZuCImtXs0Fwf6ti-tjpx-324" value="ジャンルID" style="shape=partialRectangle;connectable=0;fillColor=none;top=0;left=0;bottom=0;right=0;align=left;spacingLeft=6;fontStyle=5;overflow=hidden;" vertex="1" parent="ZuCImtXs0Fwf6ti-tjpx-322">
          <mxGeometry x="30" width="150" height="30" as="geometry" />
        </mxCell>
        <mxCell id="ZuCImtXs0Fwf6ti-tjpx-325" value="" style="shape=partialRectangle;collapsible=0;dropTarget=0;pointerEvents=0;fillColor=none;top=0;left=0;bottom=0;right=0;points=[[0,0.5],[1,0.5]];portConstraint=eastwest;" vertex="1" parent="ZuCImtXs0Fwf6ti-tjpx-321">
          <mxGeometry y="60" width="180" height="30" as="geometry" />
        </mxCell>
        <mxCell id="ZuCImtXs0Fwf6ti-tjpx-326" value="" style="shape=partialRectangle;connectable=0;fillColor=none;top=0;left=0;bottom=0;right=0;editable=1;overflow=hidden;" vertex="1" parent="ZuCImtXs0Fwf6ti-tjpx-325">
          <mxGeometry width="30" height="30" as="geometry" />
        </mxCell>
        <mxCell id="ZuCImtXs0Fwf6ti-tjpx-327" value="・ジャンル名" style="shape=partialRectangle;connectable=0;fillColor=none;top=0;left=0;bottom=0;right=0;align=left;spacingLeft=6;overflow=hidden;" vertex="1" parent="ZuCImtXs0Fwf6ti-tjpx-325">
          <mxGeometry x="30" width="150" height="30" as="geometry" />
        </mxCell>
        <mxCell id="ZuCImtXs0Fwf6ti-tjpx-328" value="" style="shape=partialRectangle;collapsible=0;dropTarget=0;pointerEvents=0;fillColor=none;top=0;left=0;bottom=0;right=0;points=[[0,0.5],[1,0.5]];portConstraint=eastwest;" vertex="1" parent="ZuCImtXs0Fwf6ti-tjpx-321">
          <mxGeometry y="90" width="180" height="30" as="geometry" />
        </mxCell>
        <mxCell id="ZuCImtXs0Fwf6ti-tjpx-329" value="" style="shape=partialRectangle;connectable=0;fillColor=none;top=0;left=0;bottom=0;right=0;editable=1;overflow=hidden;" vertex="1" parent="ZuCImtXs0Fwf6ti-tjpx-328">
          <mxGeometry width="30" height="30" as="geometry" />
        </mxCell>
        <mxCell id="ZuCImtXs0Fwf6ti-tjpx-330" value="・商品ID" style="shape=partialRectangle;connectable=0;fillColor=none;top=0;left=0;bottom=0;right=0;align=left;spacingLeft=6;overflow=hidden;" vertex="1" parent="ZuCImtXs0Fwf6ti-tjpx-328">
          <mxGeometry x="30" width="150" height="30" as="geometry" />
        </mxCell>
        <mxCell id="ZuCImtXs0Fwf6ti-tjpx-331" value="" style="shape=partialRectangle;collapsible=0;dropTarget=0;pointerEvents=0;fillColor=none;top=0;left=0;bottom=0;right=0;points=[[0,0.5],[1,0.5]];portConstraint=eastwest;" vertex="1" parent="ZuCImtXs0Fwf6ti-tjpx-321">
          <mxGeometry y="120" width="180" height="30" as="geometry" />
        </mxCell>
        <mxCell id="ZuCImtXs0Fwf6ti-tjpx-332" value="" style="shape=partialRectangle;connectable=0;fillColor=none;top=0;left=0;bottom=0;right=0;editable=1;overflow=hidden;" vertex="1" parent="ZuCImtXs0Fwf6ti-tjpx-331">
          <mxGeometry width="30" height="30" as="geometry" />
        </mxCell>
        <mxCell id="ZuCImtXs0Fwf6ti-tjpx-333" value="" style="shape=partialRectangle;connectable=0;fillColor=none;top=0;left=0;bottom=0;right=0;align=left;spacingLeft=6;overflow=hidden;" vertex="1" parent="ZuCImtXs0Fwf6ti-tjpx-331">
          <mxGeometry x="30" width="150" height="30" as="geometry" />
        </mxCell>
        <mxCell id="ZuCImtXs0Fwf6ti-tjpx-335" value="" style="endArrow=none;html=1;rounded=0;fontSize=14;entryX=0.5;entryY=0;entryDx=0;entryDy=0;exitX=0.465;exitY=0.967;exitDx=0;exitDy=0;exitPerimeter=0;" edge="1" parent="1" source="ZuCImtXs0Fwf6ti-tjpx-84" target="ZuCImtXs0Fwf6ti-tjpx-321">
          <mxGeometry relative="1" as="geometry">
            <mxPoint x="-320" y="-2490" as="sourcePoint" />
            <mxPoint x="-160" y="-2490" as="targetPoint" />
          </mxGeometry>
        </mxCell>
        <mxCell id="ZuCImtXs0Fwf6ti-tjpx-336" value="N" style="resizable=0;html=1;align=right;verticalAlign=bottom;" connectable="0" vertex="1" parent="ZuCImtXs0Fwf6ti-tjpx-335">
          <mxGeometry x="1" relative="1" as="geometry" />
        </mxCell>
        <mxCell id="ZuCImtXs0Fwf6ti-tjpx-337" value="" style="edgeStyle=entityRelationEdgeStyle;fontSize=12;html=1;endArrow=ERoneToMany;" edge="1" parent="1">
          <mxGeometry width="100" height="100" relative="1" as="geometry">
            <mxPoint x="-607" y="-2520" as="sourcePoint" />
            <mxPoint x="-790" y="-2330" as="targetPoint" />
          </mxGeometry>
        </mxCell>
        <mxCell id="ZuCImtXs0Fwf6ti-tjpx-338" value="支払い" style="shape=table;startSize=30;container=1;collapsible=1;childLayout=tableLayout;fixedRows=1;rowLines=0;fontStyle=1;align=center;resizeLast=1;labelBackgroundColor=none;strokeColor=#000000;strokeWidth=1;fillColor=#ffffff;fontSize=14;" vertex="1" parent="1">
          <mxGeometry x="-500" y="-3130" width="180" height="160" as="geometry" />
        </mxCell>
        <mxCell id="ZuCImtXs0Fwf6ti-tjpx-339" value="" style="shape=partialRectangle;collapsible=0;dropTarget=0;pointerEvents=0;fillColor=none;top=0;left=0;bottom=1;right=0;points=[[0,0.5],[1,0.5]];portConstraint=eastwest;" vertex="1" parent="ZuCImtXs0Fwf6ti-tjpx-338">
          <mxGeometry y="30" width="180" height="30" as="geometry" />
        </mxCell>
        <mxCell id="ZuCImtXs0Fwf6ti-tjpx-340" value="PK" style="shape=partialRectangle;connectable=0;fillColor=none;top=0;left=0;bottom=0;right=0;fontStyle=1;overflow=hidden;" vertex="1" parent="ZuCImtXs0Fwf6ti-tjpx-339">
          <mxGeometry width="30" height="30" as="geometry" />
        </mxCell>
        <mxCell id="ZuCImtXs0Fwf6ti-tjpx-341" value="支払いID" style="shape=partialRectangle;connectable=0;fillColor=none;top=0;left=0;bottom=0;right=0;align=left;spacingLeft=6;fontStyle=5;overflow=hidden;" vertex="1" parent="ZuCImtXs0Fwf6ti-tjpx-339">
          <mxGeometry x="30" width="150" height="30" as="geometry" />
        </mxCell>
        <mxCell id="ZuCImtXs0Fwf6ti-tjpx-342" value="" style="shape=partialRectangle;collapsible=0;dropTarget=0;pointerEvents=0;fillColor=none;top=0;left=0;bottom=0;right=0;points=[[0,0.5],[1,0.5]];portConstraint=eastwest;" vertex="1" parent="ZuCImtXs0Fwf6ti-tjpx-338">
          <mxGeometry y="60" width="180" height="30" as="geometry" />
        </mxCell>
        <mxCell id="ZuCImtXs0Fwf6ti-tjpx-343" value="" style="shape=partialRectangle;connectable=0;fillColor=none;top=0;left=0;bottom=0;right=0;editable=1;overflow=hidden;" vertex="1" parent="ZuCImtXs0Fwf6ti-tjpx-342">
          <mxGeometry width="30" height="30" as="geometry" />
        </mxCell>
        <mxCell id="ZuCImtXs0Fwf6ti-tjpx-344" value="・クレジットカード" style="shape=partialRectangle;connectable=0;fillColor=none;top=0;left=0;bottom=0;right=0;align=left;spacingLeft=6;overflow=hidden;" vertex="1" parent="ZuCImtXs0Fwf6ti-tjpx-342">
          <mxGeometry x="30" width="150" height="30" as="geometry" />
        </mxCell>
        <mxCell id="ZuCImtXs0Fwf6ti-tjpx-345" value="" style="shape=partialRectangle;collapsible=0;dropTarget=0;pointerEvents=0;fillColor=none;top=0;left=0;bottom=0;right=0;points=[[0,0.5],[1,0.5]];portConstraint=eastwest;" vertex="1" parent="ZuCImtXs0Fwf6ti-tjpx-338">
          <mxGeometry y="90" width="180" height="30" as="geometry" />
        </mxCell>
        <mxCell id="ZuCImtXs0Fwf6ti-tjpx-346" value="" style="shape=partialRectangle;connectable=0;fillColor=none;top=0;left=0;bottom=0;right=0;editable=1;overflow=hidden;" vertex="1" parent="ZuCImtXs0Fwf6ti-tjpx-345">
          <mxGeometry width="30" height="30" as="geometry" />
        </mxCell>
        <mxCell id="ZuCImtXs0Fwf6ti-tjpx-347" value="・銀行振込" style="shape=partialRectangle;connectable=0;fillColor=none;top=0;left=0;bottom=0;right=0;align=left;spacingLeft=6;overflow=hidden;" vertex="1" parent="ZuCImtXs0Fwf6ti-tjpx-345">
          <mxGeometry x="30" width="150" height="30" as="geometry" />
        </mxCell>
        <mxCell id="ZuCImtXs0Fwf6ti-tjpx-348" value="" style="shape=partialRectangle;collapsible=0;dropTarget=0;pointerEvents=0;fillColor=none;top=0;left=0;bottom=0;right=0;points=[[0,0.5],[1,0.5]];portConstraint=eastwest;" vertex="1" parent="ZuCImtXs0Fwf6ti-tjpx-338">
          <mxGeometry y="120" width="180" height="30" as="geometry" />
        </mxCell>
        <mxCell id="ZuCImtXs0Fwf6ti-tjpx-349" value="" style="shape=partialRectangle;connectable=0;fillColor=none;top=0;left=0;bottom=0;right=0;editable=1;overflow=hidden;" vertex="1" parent="ZuCImtXs0Fwf6ti-tjpx-348">
          <mxGeometry width="30" height="30" as="geometry" />
        </mxCell>
        <mxCell id="ZuCImtXs0Fwf6ti-tjpx-350" value="・会員ID" style="shape=partialRectangle;connectable=0;fillColor=none;top=0;left=0;bottom=0;right=0;align=left;spacingLeft=6;overflow=hidden;" vertex="1" parent="ZuCImtXs0Fwf6ti-tjpx-348">
          <mxGeometry x="30" width="150" height="30" as="geometry" />
        </mxCell>
        <mxCell id="ZuCImtXs0Fwf6ti-tjpx-351" value="" style="edgeStyle=entityRelationEdgeStyle;fontSize=12;html=1;endArrow=ERoneToMany;exitX=0.994;exitY=0.167;exitDx=0;exitDy=0;exitPerimeter=0;" edge="1" parent="1" source="ZuCImtXs0Fwf6ti-tjpx-21" target="ZuCImtXs0Fwf6ti-tjpx-348">
          <mxGeometry width="100" height="100" relative="1" as="geometry">
            <mxPoint x="-590" y="-2950" as="sourcePoint" />
            <mxPoint x="-490" y="-3050" as="targetPoint" />
          </mxGeometry>
        </mxCell>
        <mxCell id="ZuCImtXs0Fwf6ti-tjpx-352" value="" style="edgeStyle=entityRelationEdgeStyle;fontSize=12;html=1;endArrow=ERmandOne;entryX=0;entryY=0.5;entryDx=0;entryDy=0;" edge="1" parent="1" target="ZuCImtXs0Fwf6ti-tjpx-296">
          <mxGeometry width="100" height="100" relative="1" as="geometry">
            <mxPoint x="-603" y="-2350" as="sourcePoint" />
            <mxPoint x="-533" y="-2290" as="targetPoint" />
          </mxGeometry>
        </mxCell>
        <mxCell id="ZuCImtXs0Fwf6ti-tjpx-353" value="" style="edgeStyle=orthogonalEdgeStyle;fontSize=12;html=1;endArrow=ERmandOne;entryX=0.75;entryY=0;entryDx=0;entryDy=0;" edge="1" parent="1" target="ZuCImtXs0Fwf6ti-tjpx-74">
          <mxGeometry width="100" height="100" relative="1" as="geometry">
            <mxPoint x="-620" y="-3160" as="sourcePoint" />
            <mxPoint x="-40" y="-3160" as="targetPoint" />
          </mxGeometry>
        </mxCell>
      </root>
    </mxGraphModel>
  </diagram>
</mxfile>
